<?xml version="1.0" encoding="UTF-8" standalone="no"?>
<svg
   xmlns:dc="http://purl.org/dc/elements/1.1/"
   xmlns:cc="http://creativecommons.org/ns#"
   xmlns:rdf="http://www.w3.org/1999/02/22-rdf-syntax-ns#"
   xmlns:svg="http://www.w3.org/2000/svg"
   xmlns="http://www.w3.org/2000/svg"
   viewBox="0 0 604 217"
   height="217"
   width="604"
   xml:space="preserve"
   version="1.1"
   id="svg5015"><metadata
     id="metadata5021"><rdf:RDF><cc:Work
         rdf:about=""><dc:format>image/svg+xml</dc:format><dc:type
           rdf:resource="http://purl.org/dc/dcmitype/StillImage" /><dc:title></dc:title></cc:Work></rdf:RDF></metadata><defs
     id="defs5019"><linearGradient
       id="linearGradient5039"
       spreadMethod="pad"
       gradientTransform="matrix(0,-90.960976,-90.960976,0,136.01938,203.44374)"
       gradientUnits="userSpaceOnUse"
       y2="0"
       x2="1"
       y1="0"
       x1="0"><stop
         id="stop5041"
         offset="0"
         style="stop-opacity:1;stop-color:#dfc289" /><stop
         id="stop5043"
         offset="1"
         style="stop-opacity:1;stop-color:#89744c" /></linearGradient><linearGradient
       id="linearGradient5059"
       spreadMethod="pad"
       gradientTransform="matrix(0,-90.960976,-90.960976,0,83.713959,203.44374)"
       gradientUnits="userSpaceOnUse"
       y2="0"
       x2="1"
       y1="0"
       x1="0"><stop
         id="stop5061"
         offset="0"
         style="stop-opacity:1;stop-color:#dfc289" /><stop
         id="stop5063"
         offset="1"
         style="stop-opacity:1;stop-color:#89744c" /></linearGradient><linearGradient
       id="linearGradient5079"
       spreadMethod="pad"
       gradientTransform="matrix(0,-90.960976,-90.960976,0,83.713959,203.44374)"
       gradientUnits="userSpaceOnUse"
       y2="0"
       x2="1"
       y1="0"
       x1="0"><stop
         id="stop5081"
         offset="0"
         style="stop-opacity:1;stop-color:#dfc289" /><stop
         id="stop5083"
         offset="1"
         style="stop-opacity:1;stop-color:#89744c" /></linearGradient><linearGradient
       id="linearGradient5099"
       spreadMethod="pad"
       gradientTransform="matrix(0,-90.960976,-90.960976,0,83.713959,203.44374)"
       gradientUnits="userSpaceOnUse"
       y2="0"
       x2="1"
       y1="0"
       x1="0"><stop
         id="stop5101"
         offset="0"
         style="stop-opacity:1;stop-color:#dfc289" /><stop
         id="stop5103"
         offset="1"
         style="stop-opacity:1;stop-color:#89744c" /></linearGradient><linearGradient
       id="linearGradient5119"
       spreadMethod="pad"
       gradientTransform="matrix(0,-90.960976,-90.960976,0,83.720764,203.44374)"
       gradientUnits="userSpaceOnUse"
       y2="0"
       x2="1"
       y1="0"
       x1="0"><stop
         id="stop5121"
         offset="0"
         style="stop-opacity:1;stop-color:#dfc289" /><stop
         id="stop5123"
         offset="1"
         style="stop-opacity:1;stop-color:#89744c" /></linearGradient><linearGradient
       id="linearGradient5139"
       spreadMethod="pad"
       gradientTransform="matrix(0,-90.960976,-90.960976,0,84.165932,203.44374)"
       gradientUnits="userSpaceOnUse"
       y2="0"
       x2="1"
       y1="0"
       x1="0"><stop
         id="stop5141"
         offset="0"
         style="stop-opacity:1;stop-color:#dfc289" /><stop
         id="stop5143"
         offset="1"
         style="stop-opacity:1;stop-color:#89744c" /></linearGradient><linearGradient
       id="linearGradient5159"
       spreadMethod="pad"
       gradientTransform="matrix(0,-90.960976,-90.960976,0,85.377655,203.44374)"
       gradientUnits="userSpaceOnUse"
       y2="0"
       x2="1"
       y1="0"
       x1="0"><stop
         id="stop5161"
         offset="0"
         style="stop-opacity:1;stop-color:#dfc289" /><stop
         id="stop5163"
         offset="1"
         style="stop-opacity:1;stop-color:#89744c" /></linearGradient><linearGradient
       id="linearGradient5179"
       spreadMethod="pad"
       gradientTransform="matrix(0,-90.960976,-90.960976,0,87.324455,203.44374)"
       gradientUnits="userSpaceOnUse"
       y2="0"
       x2="1"
       y1="0"
       x1="0"><stop
         id="stop5181"
         offset="0"
         style="stop-opacity:1;stop-color:#dfc289" /><stop
         id="stop5183"
         offset="1"
         style="stop-opacity:1;stop-color:#89744c" /></linearGradient><linearGradient
       id="linearGradient5199"
       spreadMethod="pad"
       gradientTransform="matrix(0,-90.960976,-90.960976,0,89.941376,203.44374)"
       gradientUnits="userSpaceOnUse"
       y2="0"
       x2="1"
       y1="0"
       x1="0"><stop
         id="stop5201"
         offset="0"
         style="stop-opacity:1;stop-color:#dfc289" /><stop
         id="stop5203"
         offset="1"
         style="stop-opacity:1;stop-color:#89744c" /></linearGradient><linearGradient
       id="linearGradient5219"
       spreadMethod="pad"
       gradientTransform="matrix(0,-90.960976,-90.960976,0,103.4524,203.44374)"
       gradientUnits="userSpaceOnUse"
       y2="0"
       x2="1"
       y1="0"
       x1="0"><stop
         id="stop5221"
         offset="0"
         style="stop-opacity:1;stop-color:#dfc289" /><stop
         id="stop5223"
         offset="1"
         style="stop-opacity:1;stop-color:#89744c" /></linearGradient><linearGradient
       id="linearGradient5239"
       spreadMethod="pad"
       gradientTransform="matrix(0,-90.960976,-90.960976,0,114.84439,203.44374)"
       gradientUnits="userSpaceOnUse"
       y2="0"
       x2="1"
       y1="0"
       x1="0"><stop
         id="stop5241"
         offset="0"
         style="stop-opacity:1;stop-color:#dfc289" /><stop
         id="stop5243"
         offset="1"
         style="stop-opacity:1;stop-color:#89744c" /></linearGradient><linearGradient
       id="linearGradient5259"
       spreadMethod="pad"
       gradientTransform="matrix(0,-90.960976,-90.960976,0,125.49655,203.44374)"
       gradientUnits="userSpaceOnUse"
       y2="0"
       x2="1"
       y1="0"
       x1="0"><stop
         id="stop5261"
         offset="0"
         style="stop-opacity:1;stop-color:#dfc289" /><stop
         id="stop5263"
         offset="1"
         style="stop-opacity:1;stop-color:#89744c" /></linearGradient><linearGradient
       id="linearGradient5279"
       spreadMethod="pad"
       gradientTransform="matrix(0,-90.960976,-90.960976,0,135.80566,203.44374)"
       gradientUnits="userSpaceOnUse"
       y2="0"
       x2="1"
       y1="0"
       x1="0"><stop
         id="stop5281"
         offset="0"
         style="stop-opacity:1;stop-color:#dfc289" /><stop
         id="stop5283"
         offset="1"
         style="stop-opacity:1;stop-color:#89744c" /></linearGradient><linearGradient
       id="linearGradient5299"
       spreadMethod="pad"
       gradientTransform="matrix(0,-90.960976,-90.960976,0,187.89279,203.44374)"
       gradientUnits="userSpaceOnUse"
       y2="0"
       x2="1"
       y1="0"
       x1="0"><stop
         id="stop5301"
         offset="0"
         style="stop-opacity:1;stop-color:#dfc289" /><stop
         id="stop5303"
         offset="1"
         style="stop-opacity:1;stop-color:#89744c" /></linearGradient><linearGradient
       id="linearGradient5319"
       spreadMethod="pad"
       gradientTransform="matrix(0,-90.960976,-90.960976,0,187.89279,203.44374)"
       gradientUnits="userSpaceOnUse"
       y2="0"
       x2="1"
       y1="0"
       x1="0"><stop
         id="stop5321"
         offset="0"
         style="stop-opacity:1;stop-color:#dfc289" /><stop
         id="stop5323"
         offset="1"
         style="stop-opacity:1;stop-color:#89744c" /></linearGradient><linearGradient
       id="linearGradient5339"
       spreadMethod="pad"
       gradientTransform="matrix(0,-90.960976,-90.960976,0,187.89279,203.44374)"
       gradientUnits="userSpaceOnUse"
       y2="0"
       x2="1"
       y1="0"
       x1="0"><stop
         id="stop5341"
         offset="0"
         style="stop-opacity:1;stop-color:#dfc289" /><stop
         id="stop5343"
         offset="1"
         style="stop-opacity:1;stop-color:#89744c" /></linearGradient><linearGradient
       id="linearGradient5359"
       spreadMethod="pad"
       gradientTransform="matrix(0,-90.960976,-90.960976,0,187.8858,203.44374)"
       gradientUnits="userSpaceOnUse"
       y2="0"
       x2="1"
       y1="0"
       x1="0"><stop
         id="stop5361"
         offset="0"
         style="stop-opacity:1;stop-color:#dfc289" /><stop
         id="stop5363"
         offset="1"
         style="stop-opacity:1;stop-color:#89744c" /></linearGradient><linearGradient
       id="linearGradient5379"
       spreadMethod="pad"
       gradientTransform="matrix(0,-90.960976,-90.960976,0,187.44064,203.44374)"
       gradientUnits="userSpaceOnUse"
       y2="0"
       x2="1"
       y1="0"
       x1="0"><stop
         id="stop5381"
         offset="0"
         style="stop-opacity:1;stop-color:#dfc289" /><stop
         id="stop5383"
         offset="1"
         style="stop-opacity:1;stop-color:#89744c" /></linearGradient><linearGradient
       id="linearGradient5399"
       spreadMethod="pad"
       gradientTransform="matrix(0,-90.960976,-90.960976,0,186.22894,203.44374)"
       gradientUnits="userSpaceOnUse"
       y2="0"
       x2="1"
       y1="0"
       x1="0"><stop
         id="stop5401"
         offset="0"
         style="stop-opacity:1;stop-color:#dfc289" /><stop
         id="stop5403"
         offset="1"
         style="stop-opacity:1;stop-color:#89744c" /></linearGradient><linearGradient
       id="linearGradient5419"
       spreadMethod="pad"
       gradientTransform="matrix(0,-90.960976,-90.960976,0,184.28215,203.44374)"
       gradientUnits="userSpaceOnUse"
       y2="0"
       x2="1"
       y1="0"
       x1="0"><stop
         id="stop5421"
         offset="0"
         style="stop-opacity:1;stop-color:#dfc289" /><stop
         id="stop5423"
         offset="1"
         style="stop-opacity:1;stop-color:#89744c" /></linearGradient><linearGradient
       id="linearGradient5439"
       spreadMethod="pad"
       gradientTransform="matrix(0,-90.960976,-90.960976,0,181.66534,203.44374)"
       gradientUnits="userSpaceOnUse"
       y2="0"
       x2="1"
       y1="0"
       x1="0"><stop
         id="stop5441"
         offset="0"
         style="stop-opacity:1;stop-color:#dfc289" /><stop
         id="stop5443"
         offset="1"
         style="stop-opacity:1;stop-color:#89744c" /></linearGradient><linearGradient
       id="linearGradient5459"
       spreadMethod="pad"
       gradientTransform="matrix(0,-90.960976,-90.960976,0,168.15434,203.44374)"
       gradientUnits="userSpaceOnUse"
       y2="0"
       x2="1"
       y1="0"
       x1="0"><stop
         id="stop5461"
         offset="0"
         style="stop-opacity:1;stop-color:#dfc289" /><stop
         id="stop5463"
         offset="1"
         style="stop-opacity:1;stop-color:#89744c" /></linearGradient><linearGradient
       id="linearGradient5479"
       spreadMethod="pad"
       gradientTransform="matrix(0,-90.960976,-90.960976,0,156.76233,203.44374)"
       gradientUnits="userSpaceOnUse"
       y2="0"
       x2="1"
       y1="0"
       x1="0"><stop
         id="stop5481"
         offset="0"
         style="stop-opacity:1;stop-color:#dfc289" /><stop
         id="stop5483"
         offset="1"
         style="stop-opacity:1;stop-color:#89744c" /></linearGradient><linearGradient
       id="linearGradient5499"
       spreadMethod="pad"
       gradientTransform="matrix(0,-90.960976,-90.960976,0,146.11017,203.44374)"
       gradientUnits="userSpaceOnUse"
       y2="0"
       x2="1"
       y1="0"
       x1="0"><stop
         id="stop5501"
         offset="0"
         style="stop-opacity:1;stop-color:#dfc289" /><stop
         id="stop5503"
         offset="1"
         style="stop-opacity:1;stop-color:#89744c" /></linearGradient><clipPath
       id="clipPath5511"
       clipPathUnits="userSpaceOnUse"><path
         id="path5513"
         d="m 0,255.12 566.93,0 L 566.93,0 0,0 0,255.12 Z" /></clipPath></defs><g
     transform="matrix(1.25,0,0,-1.25,-52,268.00251)"
     id="g5023"><path
       id="path5025"
       style="fill:#1b1c20;fill-opacity:1;fill-rule:nonzero;stroke:none"
       d="m 41.6,40.802007 483.2,0 0,173.600003 -483.2,0 0,-173.600003 z" /><g
       id="g5027"><g
         id="g5029"><g
           id="g5035"><g
             id="g5037"><path
               id="path5045"
               style="fill:url(#linearGradient5039);stroke:none"
               d="m 103.948,150.258 0,-39.407 21.053,0 0,40.884 c 0,5.417 4.432,10.834 11.203,10.834 l 0,0 c 6.155,0 11.203,-4.678 11.203,-10.834 l 0,0 0,-40.884 20.683,0 0,39.407 c 0,18.466 -13.911,32.747 -31.886,32.747 l 0,0 c -18.221,0 -32.256,-13.911 -32.256,-32.747" /></g></g></g></g><g
       id="g5047"><g
         id="g5049"><g
           id="g5055"><g
             id="g5057"><path
               id="path5065"
               style="fill:url(#linearGradient5059);stroke:none"
               d="m 74.01,118.753 c -0.363,0 -0.658,-0.294 -0.658,-0.658 l 0,0 c 0,-0.362 0.295,-0.658 0.658,-0.658 l 0,0 19.408,0 c 0.363,0 0.658,0.296 0.658,0.658 l 0,0 c 0,0.364 -0.295,0.658 -0.658,0.658 l 0,0 -19.408,0 z" /></g></g></g></g><g
       id="g5067"><g
         id="g5069"><g
           id="g5075"><g
             id="g5077"><path
               id="path5085"
               style="fill:url(#linearGradient5079);stroke:none"
               d="m 74.01,129.785 c -0.363,0 -0.658,-0.294 -0.658,-0.657 l 0,0 c 0,-0.363 0.295,-0.658 0.658,-0.658 l 0,0 19.408,0 c 0.363,0 0.658,0.295 0.658,0.658 l 0,0 c 0,0.363 -0.295,0.657 -0.658,0.657 l 0,0 -19.408,0 z" /></g></g></g></g><g
       id="g5087"><g
         id="g5089"><g
           id="g5095"><g
             id="g5097"><path
               id="path5105"
               style="fill:url(#linearGradient5099);stroke:none"
               d="m 74.01,140.818 c -0.363,0 -0.658,-0.295 -0.658,-0.658 l 0,0 c 0,-0.363 0.295,-0.658 0.658,-0.658 l 0,0 19.408,0 c 0.363,0 0.658,0.295 0.658,0.658 l 0,0 c 0,0.363 -0.295,0.658 -0.658,0.658 l 0,0 -19.408,0 z" /></g></g></g></g><g
       id="g5107"><g
         id="g5109"><g
           id="g5115"><g
             id="g5117"><path
               id="path5125"
               style="fill:url(#linearGradient5119);stroke:none"
               d="m 73.36,151.344 c -0.005,-0.364 0.285,-0.662 0.648,-0.668 l 0,0 19.406,-0.284 0.01,0 c 0.359,0 0.652,0.288 0.657,0.648 l 0,0 c 0.006,0.363 -0.284,0.662 -0.647,0.668 l 0,0 -19.406,0.285 c -0.359,-0.01 -0.663,-0.285 -0.668,-0.649" /></g></g></g></g><g
       id="g5127"><g
         id="g5129"><g
           id="g5135"><g
             id="g5137"><path
               id="path5145"
               style="fill:url(#linearGradient5139);stroke:none"
               d="m 73.365,163.659 c -0.073,-0.356 0.158,-0.703 0.514,-0.776 l 0,0 20.311,-4.137 c 0.044,-0.009 0.089,-0.014 0.133,-0.014 l 0,0 c 0.306,0 0.58,0.215 0.644,0.527 l 0,0 c 0.072,0.356 -0.157,0.703 -0.514,0.776 l 0,0 -20.312,4.138 c -0.045,0.009 -0.09,0.013 -0.133,0.013 l 0,0 c -0.307,0 -0.58,-0.216 -0.643,-0.527" /></g></g></g></g><g
       id="g5147"><g
         id="g5149"><g
           id="g5155"><g
             id="g5157"><path
               id="path5165"
               style="fill:url(#linearGradient5159);stroke:none"
               d="m 73.403,177.1 c -0.14,-0.335 0.018,-0.721 0.354,-0.86 l 0,0 22.735,-9.478 c 0.083,-0.035 0.169,-0.051 0.253,-0.051 l 0,0 c 0.258,0 0.503,0.153 0.607,0.405 l 0,0 c 0.141,0.335 -0.018,0.721 -0.354,0.86 l 0,0 -22.734,9.479 c -0.083,0.034 -0.169,0.051 -0.253,0.051 l 0,0 c -0.258,0 -0.503,-0.153 -0.608,-0.406" /></g></g></g></g><g
       id="g5167"><g
         id="g5169"><g
           id="g5175"><g
             id="g5177"><path
               id="path5185"
               style="fill:url(#linearGradient5179);stroke:none"
               d="m 73.463,192.782 c -0.202,-0.303 -0.12,-0.711 0.183,-0.912 l 0,0 26.628,-17.72 c 0.112,-0.075 0.239,-0.111 0.364,-0.111 l 0,0 c 0.213,0 0.422,0.104 0.549,0.295 l 0,0 c 0.201,0.302 0.119,0.711 -0.184,0.911 l 0,0 -26.629,17.72 c -0.112,0.075 -0.238,0.111 -0.363,0.111 l 0,0 c -0.213,0 -0.422,-0.103 -0.548,-0.294" /></g></g></g></g><g
       id="g5187"><g
         id="g5189"><g
           id="g5195"><g
             id="g5197"><path
               id="path5205"
               style="fill:url(#linearGradient5199);stroke:none"
               d="m 73.55,213.407 c -0.257,-0.257 -0.257,-0.674 0.001,-0.93 l 0,0 31.851,-31.831 c 0.128,-0.128 0.297,-0.192 0.465,-0.192 l 0,0 c 0.168,0 0.337,0.064 0.465,0.192 l 0,0 c 0.258,0.258 0.258,0.674 0,0.931 l 0,0 -31.851,31.83 c -0.128,0.129 -0.297,0.193 -0.465,0.193 l 0,0 c -0.169,0 -0.337,-0.065 -0.466,-0.193" /></g></g></g></g><g
       id="g5207"><g
         id="g5209"><g
           id="g5215"><g
             id="g5217"><path
               id="path5225"
               style="fill:url(#linearGradient5219);stroke:none"
               d="m 94.301,213.491 c -0.303,-0.201 -0.386,-0.609 -0.185,-0.912 l 0,0 17.575,-26.572 c 0.127,-0.192 0.336,-0.296 0.55,-0.296 l 0,0 c 0.125,0 0.251,0.035 0.363,0.109 l 0,0 c 0.303,0.201 0.386,0.61 0.185,0.913 l 0,0 -17.575,26.572 c -0.127,0.191 -0.337,0.295 -0.551,0.295 l 0,0 c -0.124,0 -0.25,-0.035 -0.362,-0.109" /></g></g></g></g><g
       id="g5227"><g
         id="g5229"><g
           id="g5235"><g
             id="g5237"><path
               id="path5245"
               style="fill:url(#linearGradient5239);stroke:none"
               d="m 109.936,213.55 c -0.337,-0.138 -0.497,-0.522 -0.359,-0.858 l 0,0 9.318,-22.682 c 0.104,-0.254 0.35,-0.408 0.608,-0.408 l 0,0 c 0.084,0 0.168,0.015 0.25,0.05 l 0,0 c 0.336,0.137 0.497,0.522 0.359,0.858 l 0,0 -9.317,22.682 c -0.105,0.254 -0.351,0.408 -0.609,0.408 l 0,0 c -0.084,0 -0.168,-0.016 -0.25,-0.05" /></g></g></g></g><g
       id="g5247"><g
         id="g5249"><g
           id="g5255"><g
             id="g5257"><path
               id="path5265"
               style="fill:url(#linearGradient5259);stroke:none"
               d="m 123.371,213.587 c -0.356,-0.07 -0.588,-0.416 -0.518,-0.773 l 0,0 3.996,-20.257 c 0.062,-0.313 0.336,-0.53 0.645,-0.53 l 0,0 c 0.042,0 0.085,0.003 0.128,0.012 l 0,0 c 0.356,0.07 0.588,0.416 0.518,0.773 l 0,0 -3.996,20.257 c -0.062,0.315 -0.337,0.53 -0.646,0.53 l 0,0 c -0.042,0 -0.084,-0.004 -0.127,-0.012" /></g></g></g></g><g
       id="g5267"><g
         id="g5269"><g
           id="g5275"><g
             id="g5277"><path
               id="path5285"
               style="fill:url(#linearGradient5279);stroke:none"
               d="m 135.142,212.942 0,-19.408 0.01,-0.658 1.317,0 -0.01,20.066 -1.317,0 z" /></g></g></g></g><g
       id="g5287"><g
         id="g5289"><g
           id="g5295"><g
             id="g5297"><path
               id="path5305"
               style="fill:url(#linearGradient5299);stroke:none"
               d="m 178.189,118.753 c -0.363,0 -0.659,-0.294 -0.659,-0.658 l 0,0 c 0,-0.362 0.296,-0.658 0.659,-0.658 l 0,0 19.408,0 c 0.363,0 0.658,0.296 0.658,0.658 l 0,0 c 0,0.364 -0.295,0.658 -0.658,0.658 l 0,0 -19.408,0 z" /></g></g></g></g><g
       id="g5307"><g
         id="g5309"><g
           id="g5315"><g
             id="g5317"><path
               id="path5325"
               style="fill:url(#linearGradient5319);stroke:none"
               d="m 178.189,129.785 c -0.363,0 -0.659,-0.294 -0.659,-0.657 l 0,0 c 0,-0.363 0.296,-0.658 0.659,-0.658 l 0,0 19.408,0 c 0.363,0 0.658,0.295 0.658,0.658 l 0,0 c 0,0.363 -0.295,0.657 -0.658,0.657 l 0,0 -19.408,0 z" /></g></g></g></g><g
       id="g5327"><g
         id="g5329"><g
           id="g5335"><g
             id="g5337"><path
               id="path5345"
               style="fill:url(#linearGradient5339);stroke:none"
               d="m 178.189,140.818 c -0.363,0 -0.659,-0.295 -0.659,-0.658 l 0,0 c 0,-0.363 0.296,-0.658 0.659,-0.658 l 0,0 19.408,0 c 0.363,0 0.658,0.295 0.658,0.658 l 0,0 c 0,0.363 -0.295,0.658 -0.658,0.658 l 0,0 -19.408,0 z" /></g></g></g></g><g
       id="g5347"><g
         id="g5349"><g
           id="g5355"><g
             id="g5357"><path
               id="path5365"
               style="fill:url(#linearGradient5359);stroke:none"
               d="m 178.174,151.708 c -0.364,-0.006 -0.654,-0.305 -0.649,-0.668 l 0,0 c 0.005,-0.36 0.299,-0.648 0.658,-0.648 l 0,0 0.01,0 19.405,0.284 c 0.363,0.006 0.654,0.304 0.649,0.668 l 0,0 c -0.006,0.364 -0.326,0.643 -0.668,0.649 l 0,0 -19.405,-0.285 z" /></g></g></g></g><g
       id="g5367"><g
         id="g5369"><g
           id="g5375"><g
             id="g5377"><path
               id="path5385"
               style="fill:url(#linearGradient5379);stroke:none"
               d="m 197.465,164.173 -20.312,-4.138 c -0.355,-0.073 -0.586,-0.42 -0.513,-0.776 l 0,0 c 0.063,-0.312 0.338,-0.527 0.645,-0.527 l 0,0 c 0.043,0 0.087,0.005 0.131,0.014 l 0,0 20.312,4.137 c 0.356,0.073 0.586,0.42 0.513,0.776 l 0,0 c -0.064,0.311 -0.336,0.527 -0.642,0.527 l 0,0 c -0.044,0 -0.089,-0.004 -0.134,-0.013" /></g></g></g></g><g
       id="g5387"><g
         id="g5389"><g
           id="g5395"><g
             id="g5397"><path
               id="path5405"
               style="fill:url(#linearGradient5399);stroke:none"
               d="m 197.343,177.455 -22.735,-9.479 c -0.336,-0.139 -0.494,-0.525 -0.355,-0.86 l 0,0 c 0.107,-0.253 0.351,-0.405 0.608,-0.405 l 0,0 c 0.085,0 0.171,0.016 0.254,0.051 l 0,0 22.735,9.478 c 0.335,0.139 0.494,0.525 0.354,0.86 l 0,0 c -0.106,0.254 -0.35,0.406 -0.608,0.406 l 0,0 c -0.084,0 -0.17,-0.017 -0.253,-0.051" /></g></g></g></g><g
       id="g5407"><g
         id="g5409"><g
           id="g5415"><g
             id="g5417"><path
               id="path5425"
               style="fill:url(#linearGradient5419);stroke:none"
               d="m 197.232,192.965 -26.629,-17.72 c -0.302,-0.2 -0.384,-0.609 -0.184,-0.911 l 0,0 c 0.127,-0.191 0.337,-0.295 0.549,-0.295 l 0,0 c 0.126,0 0.252,0.036 0.364,0.111 l 0,0 26.629,17.72 c 0.303,0.201 0.385,0.609 0.184,0.912 l 0,0 c -0.127,0.191 -0.336,0.294 -0.549,0.294 l 0,0 c -0.125,0 -0.252,-0.036 -0.364,-0.111" /></g></g></g></g><g
       id="g5427"><g
         id="g5429"><g
           id="g5435"><g
             id="g5437"><path
               id="path5445"
               style="fill:url(#linearGradient5439);stroke:none"
               d="m 197.126,213.407 -31.852,-31.83 c -0.256,-0.257 -0.256,-0.673 0,-0.931 l 0,0 c 0.129,-0.128 0.297,-0.192 0.466,-0.192 l 0,0 c 0.169,0 0.336,0.064 0.465,0.192 l 0,0 31.851,31.831 c 0.257,0.256 0.257,0.673 10e-4,0.93 l 0,0 c -0.129,0.129 -0.298,0.193 -0.466,0.193 l 0,0 c -0.168,0 -0.337,-0.064 -0.465,-0.193" /></g></g></g></g><g
       id="g5447"><g
         id="g5449"><g
           id="g5455"><g
             id="g5457"><path
               id="path5465"
               style="fill:url(#linearGradient5459);stroke:none"
               d="m 176.394,213.305 -17.576,-26.572 c -0.201,-0.303 -0.117,-0.712 0.186,-0.913 l 0,0 c 0.111,-0.074 0.238,-0.109 0.362,-0.109 l 0,0 c 0.214,0 0.423,0.104 0.55,0.296 l 0,0 17.575,26.572 c 0.2,0.303 0.117,0.711 -0.187,0.912 l 0,0 c -0.111,0.073 -0.236,0.109 -0.361,0.109 l 0,0 c -0.213,0 -0.423,-0.104 -0.549,-0.295" /></g></g></g></g><g
       id="g5467"><g
         id="g5469"><g
           id="g5475"><g
             id="g5477"><path
               id="path5485"
               style="fill:url(#linearGradient5479);stroke:none"
               d="m 160.812,213.192 -9.317,-22.682 c -0.138,-0.336 0.022,-0.721 0.358,-0.858 l 0,0 c 0.082,-0.035 0.167,-0.05 0.251,-0.05 l 0,0 c 0.259,0 0.504,0.154 0.608,0.408 l 0,0 9.318,22.682 c 0.137,0.336 -0.023,0.72 -0.359,0.858 l 0,0 c -0.082,0.034 -0.167,0.05 -0.25,0.05 l 0,0 c -0.258,0 -0.504,-0.154 -0.609,-0.408" /></g></g></g></g><g
       id="g5487"><g
         id="g5489"><g
           id="g5495"><g
             id="g5497"><path
               id="path5505"
               style="fill:url(#linearGradient5499);stroke:none"
               d="m 147.462,213.069 -3.996,-20.257 c -0.07,-0.357 0.162,-0.703 0.519,-0.773 l 0,0 c 0.043,-0.009 0.085,-0.012 0.128,-0.012 l 0,0 c 0.308,0 0.583,0.217 0.645,0.53 l 0,0 3.996,20.257 c 0.07,0.357 -0.161,0.703 -0.519,0.773 l 0,0 c -0.042,0.008 -0.084,0.012 -0.125,0.012 l 0,0 c -0.308,0 -0.586,-0.215 -0.648,-0.53" /></g></g></g></g><g
       id="g5507"><g
         clip-path="url(#clipPath5511)"
         id="g5509"><g
           transform="translate(74.0093,94.3712)"
           id="g5515"><path
             id="path5517"
             style="fill:#ffffff;fill-opacity:1;fill-rule:nonzero;stroke:none"
             d="m 0,0 c -0.339,0 -0.627,0.261 -0.655,0.605 -0.029,0.362 0.24,0.68 0.602,0.709 l 20.312,1.65 c 0.363,0.029 0.68,-0.24 0.71,-0.602 0.029,-0.363 -0.241,-0.68 -0.603,-0.71 L 0.054,0.002 C 0.036,0.001 0.018,0 0,0" /></g><g
           transform="translate(74.0104,77.6165)"
           id="g5519"><path
             id="path5521"
             style="fill:#ffffff;fill-opacity:1;fill-rule:nonzero;stroke:none"
             d="m 0,0 c -0.258,0 -0.503,0.152 -0.608,0.405 -0.14,0.336 0.019,0.721 0.355,0.861 l 22.735,9.478 c 0.335,0.139 0.72,-0.019 0.86,-0.354 0.14,-0.336 -0.019,-0.721 -0.354,-0.861 L 0.253,0.051 C 0.17,0.016 0.084,0 0,0" /></g><g
           transform="translate(74.0107,62.0463)"
           id="g5523"><path
             id="path5525"
             style="fill:#ffffff;fill-opacity:1;fill-rule:nonzero;stroke:none"
             d="m 0,0 c -0.213,0 -0.422,0.103 -0.548,0.294 -0.202,0.302 -0.12,0.711 0.183,0.912 l 26.629,17.72 c 0.302,0.201 0.711,0.119 0.912,-0.184 0.201,-0.302 0.119,-0.711 -0.183,-0.912 L 0.364,0.11 C 0.252,0.036 0.125,0 0,0" /></g><g
           transform="translate(74.0157,41.5221)"
           id="g5527"><path
             id="path5529"
             style="fill:#ffffff;fill-opacity:1;fill-rule:nonzero;stroke:none"
             d="m 0,0 c -0.169,0 -0.337,0.064 -0.465,0.193 -0.258,0.257 -0.257,0.674 0,0.931 l 31.851,31.83 c 0.257,0.257 0.674,0.256 0.931,-10e-4 0.257,-0.257 0.257,-0.673 0,-0.93 L 0.465,0.193 C 0.337,0.064 0.168,0 0,0" /></g><g
           transform="translate(94.664,41.5218)"
           id="g5531"><path
             id="path5533"
             style="fill:#ffffff;fill-opacity:1;fill-rule:nonzero;stroke:none"
             d="M 0,0 C -0.125,0 -0.251,0.035 -0.363,0.109 -0.666,0.31 -0.749,0.718 -0.548,1.021 l 17.575,26.573 c 0.201,0.303 0.609,0.386 0.912,0.185 0.304,-0.2 0.387,-0.608 0.186,-0.912 L 0.549,0.295 C 0.423,0.104 0.213,0 0,0" /></g><g
           transform="translate(110.1855,41.5218)"
           id="g5535"><path
             id="path5537"
             style="fill:#ffffff;fill-opacity:1;fill-rule:nonzero;stroke:none"
             d="M 0,0 C -0.083,0 -0.168,0.016 -0.25,0.05 -0.586,0.188 -0.747,0.572 -0.609,0.908 L 8.709,23.59 c 0.138,0.336 0.522,0.497 0.859,0.359 0.336,-0.138 0.496,-0.523 0.358,-0.859 L 0.609,0.408 C 0.504,0.154 0.259,0 0,0" /></g><g
           transform="translate(123.4995,41.5218)"
           id="g5539"><path
             id="path5541"
             style="fill:#ffffff;fill-opacity:1;fill-rule:nonzero;stroke:none"
             d="m 0,0 c -0.042,0 -0.085,0.004 -0.128,0.013 -0.357,0.07 -0.589,0.416 -0.519,0.773 l 3.996,20.257 c 0.071,0.356 0.417,0.587 0.773,0.518 0.357,-0.07 0.589,-0.416 0.519,-0.773 L 0.645,0.531 C 0.583,0.217 0.308,0 0,0" /></g><g
           transform="translate(135.8033,41.5221)"
           id="g5543"><path
             id="path5545"
             style="fill:#ffffff;fill-opacity:1;fill-rule:nonzero;stroke:none"
             d="m 0,0 c -0.363,0 -0.658,0.295 -0.658,0.658 l 0,19.407 c 0,0.364 0.295,0.658 0.658,0.658 0.363,0 0.658,-0.294 0.658,-0.658 l 0,-19.407 C 0.658,0.295 0.363,0 0,0" /></g><g
           transform="translate(197.597,94.3712)"
           id="g5547"><path
             id="path5549"
             style="fill:#ffffff;fill-opacity:1;fill-rule:nonzero;stroke:none"
             d="m 0,0 c -0.018,0 -0.036,0.001 -0.054,0.002 l -20.312,1.65 c -0.362,0.03 -0.632,0.347 -0.602,0.71 0.029,0.362 0.341,0.628 0.709,0.602 L 0.053,1.314 C 0.415,1.285 0.685,0.967 0.656,0.605 0.628,0.261 0.339,0 0,0" /></g><g
           transform="translate(197.5965,77.6165)"
           id="g5551"><path
             id="path5553"
             style="fill:#ffffff;fill-opacity:1;fill-rule:nonzero;stroke:none"
             d="m 0,0 c -0.085,0 -0.17,0.016 -0.253,0.051 l -22.735,9.478 c -0.336,0.14 -0.494,0.525 -0.355,0.861 0.141,0.335 0.526,0.493 0.861,0.354 L 0.253,1.266 C 0.589,1.126 0.747,0.741 0.608,0.405 0.502,0.152 0.258,0 0,0" /></g><g
           transform="translate(197.5959,62.0463)"
           id="g5555"><path
             id="path5557"
             style="fill:#ffffff;fill-opacity:1;fill-rule:nonzero;stroke:none"
             d="m 0,0 c -0.125,0 -0.252,0.036 -0.364,0.11 l -26.629,17.72 c -0.302,0.201 -0.384,0.61 -0.183,0.912 0.202,0.303 0.611,0.385 0.912,0.184 L 0.365,1.206 C 0.668,1.005 0.75,0.596 0.549,0.294 0.422,0.103 0.213,0 0,0" /></g><g
           transform="translate(197.5909,41.5221)"
           id="g5559"><path
             id="path5561"
             style="fill:#ffffff;fill-opacity:1;fill-rule:nonzero;stroke:none"
             d="m 0,0 c -0.169,0 -0.337,0.064 -0.465,0.193 l -31.851,31.83 c -0.257,0.257 -0.257,0.673 -10e-4,0.93 0.257,0.258 0.674,0.258 0.931,10e-4 L 0.465,1.124 C 0.722,0.867 0.722,0.45 0.466,0.193 0.337,0.064 0.169,0 0,0" /></g><g
           transform="translate(176.9426,41.5218)"
           id="g5563"><path
             id="path5565"
             style="fill:#ffffff;fill-opacity:1;fill-rule:nonzero;stroke:none"
             d="m 0,0 c -0.214,0 -0.423,0.104 -0.549,0.295 l -17.576,26.572 c -0.201,0.304 -0.117,0.712 0.186,0.912 0.302,0.202 0.711,0.118 0.912,-0.185 L 0.548,1.021 C 0.749,0.718 0.666,0.31 0.362,0.109 0.251,0.035 0.125,0 0,0" /></g><g
           transform="translate(161.4211,41.5218)"
           id="g5567"><path
             id="path5569"
             style="fill:#ffffff;fill-opacity:1;fill-rule:nonzero;stroke:none"
             d="M 0,0 C -0.259,0 -0.504,0.154 -0.609,0.408 L -9.926,23.09 c -0.138,0.336 0.022,0.721 0.359,0.859 0.335,0.137 0.72,-0.023 0.858,-0.359 L 0.609,0.908 C 0.747,0.572 0.587,0.188 0.25,0.05 0.168,0.016 0.083,0 0,0" /></g><g
           transform="translate(148.1076,41.5218)"
           id="g5571"><path
             id="path5573"
             style="fill:#ffffff;fill-opacity:1;fill-rule:nonzero;stroke:none"
             d="m 0,0 c -0.308,0 -0.583,0.217 -0.645,0.531 l -3.996,20.257 c -0.071,0.357 0.161,0.703 0.518,0.773 0.355,0.071 0.703,-0.162 0.773,-0.518 L 0.646,0.786 C 0.717,0.429 0.485,0.083 0.128,0.013 0.085,0.004 0.042,0 0,0" /></g><g
           transform="translate(147.0386,101.5612)"
           id="g5575"><path
             id="path5577"
             style="fill:#ffffff;fill-opacity:1;fill-rule:nonzero;stroke:none"
             d="m 0,0 c 0,-5.417 -4.432,-10.835 -11.204,-10.835 -6.155,0 -11.203,4.68 -11.203,10.835 l 0,3.654 L 0,3.654 0,0 Z m 82.04,5.41 -186.559,0 0,-1.756 61.429,0 0,-2.177 c 0,-18.466 13.912,-32.748 31.886,-32.748 18.222,0 32.257,13.913 32.257,32.748 l 0,2.177 60.987,0 0,1.756 z" /></g><g
           transform="translate(394.2425,168.2171)"
           id="g5579"><path
             id="path5581"
             style="fill:#ffffff;fill-opacity:1;fill-rule:nonzero;stroke:none"
             d="m 0,0 0,-2.274 -10.321,0 0,13.34 2.42,0 0,-11.06 C -7.421,0.006 0,0 0,0" /></g><g
           transform="translate(410.2216,179.2833)"
           id="g5583"><path
             id="path5585"
             style="fill:#ffffff;fill-opacity:1;fill-rule:nonzero;stroke:none"
             d="m 0,0 0,-2.34 -7.881,0 0,-3.1 6.301,0 0,-2.34 -6.301,0 0,-3.221 7.821,0 0,-2.34 -10.22,0 L -10.28,0 0,0 Z" /></g><g
           transform="translate(362.2221,79.2508)"
           id="g5587"><path
             id="path5589"
             style="fill:#ffffff;fill-opacity:1;fill-rule:nonzero;stroke:none"
             d="m 0,0 0,13.341 2.42,0 0,-11.061 c 0.48,0 7.501,-0.016 7.901,-0.016 L 10.321,0 0,0 Z" /></g><path
           id="path5591"
           style="fill:#ffffff;fill-opacity:1;fill-rule:nonzero;stroke:none"
           d="m 378.221,92.591 2.44,0 0,-13.341 -2.44,0 0,13.341 z" /><g
           transform="translate(390.0552,94.5011)"
           id="g5593"><path
             id="path5595"
             style="fill:#ffffff;fill-opacity:1;fill-rule:nonzero;stroke:none"
             d="m 0,0 0,0.793 5.463,-0.504 0,-0.793 L 0,0 Z m 7.68,-1.91 0,-2.34 -7.88,0 0,-3.1 6.3,0 0,-2.34 -6.3,0 0,-3.22 7.82,0 0,-2.34 -10.22,0 0,13.34 10.28,0 z" /></g><g
           transform="translate(408.9759,78.931)"
           id="g5597"><path
             id="path5599"
             style="fill:#ffffff;fill-opacity:1;fill-rule:nonzero;stroke:none"
             d="m 0,0 c -3.88,0 -6.88,3.14 -6.88,6.98 0,3.74 2.919,7.001 6.939,7.001 C 2.14,13.981 3.9,13.04 5.1,11.76 4.82,11.5 3.62,10.34 3.3,10.04 2.56,10.9 1.44,11.6 0.04,11.6 c -2.56,0 -4.421,-2.1 -4.421,-4.62 0,-2.58 1.941,-4.64 4.401,-4.64 2.04,0 3.56,1.42 3.94,3.12 l -4.3,0 0,2.22 7.16,0 C 6.84,7.54 6.84,7.26 6.84,7.06 6.84,3.16 3.88,0 0,0" /></g><g
           transform="translate(431.921,92.5913)"
           id="g5601"><path
             id="path5603"
             style="fill:#ffffff;fill-opacity:1;fill-rule:nonzero;stroke:none"
             d="m 0,0 0,-2.34 -7.881,0 0,-3.1 6.301,0 0,-2.34 -6.301,0 0,-3.221 7.821,0 0,-2.34 -10.221,0 0,13.341 L 0,0 Z" /></g><g
           transform="translate(505.9435,152.61)"
           id="g5605"><path
             id="path5607"
             style="fill:#ffffff;fill-opacity:1;fill-rule:nonzero;stroke:none"
             d="M 0,0 C -4.783,0 -9.049,-1.782 -12.261,-4.735 -15.517,-1.766 -19.864,0 -24.754,0 -35.044,0 -43.008,-8.176 -43.008,-18.748 l 0,-29.109 11.84,0 0,29.954 c 0,3.525 2.89,6.204 6.414,6.204 3.877,0 6.414,-3.102 6.414,-6.204 l 0,-29.954 0.086,0 11.84,0 0.126,0 0,29.109 c 0,0.546 -0.034,1.08 -0.075,1.611 0.385,3.139 3.099,5.438 6.363,5.438 3.877,0 6.414,-3.102 6.414,-6.204 l 0,-29.954 12.052,0 0,29.109 C 18.466,-7.964 10.432,0 0,0" /></g><g
           transform="translate(269.7336,104.7529)"
           id="g5609"><path
             id="path5611"
             style="fill:#ffffff;fill-opacity:1;fill-rule:nonzero;stroke:none"
             d="m 0,0 0,47.662 37.872,0 0,-11.791 -25.653,0 0,-6.431 19.865,0 0,-11.862 -19.865,0 L 12.219,0 0,0 Z" /></g><g
           transform="translate(322.5359,128.548)"
           id="g5613"><path
             id="path5615"
             style="fill:#ffffff;fill-opacity:1;fill-rule:nonzero;stroke:none"
             d="m 0,0 c 0,-7.36 5.574,-13.077 12.862,-13.077 7.288,0 12.791,5.717 12.791,13.077 0,7.36 -5.574,13.148 -12.862,13.148 C 5.574,13.148 0,7.36 0,0 M -12.148,0 C -12.148,13.863 -1,25.01 12.791,25.01 26.653,25.01 37.8,13.863 37.8,0 37.8,-13.791 26.653,-24.938 12.862,-24.938 -1,-24.938 -12.148,-13.791 -12.148,0" /></g><g
           transform="translate(380.1985,132.0492)"
           id="g5617"><path
             id="path5619"
             style="fill:#ffffff;fill-opacity:1;fill-rule:nonzero;stroke:none"
             d="m 0,0 12.147,0 c 2.573,0 4.931,1.572 4.931,4.288 0,2.858 -2.215,4.358 -4.931,4.358 L 0,8.646 0,0 Z m -12.076,-27.296 0,47.661 25.367,0 c 8.646,0 16.006,-6.359 16.006,-16.077 0,-6.575 -4.288,-12.434 -9.361,-14.22 1.143,-1.93 9.289,-15.792 10.29,-17.364 l -15.078,0 c -0.857,1.429 -7.859,13.862 -8.932,15.72 l -6.216,0 0,-15.72 -12.076,0 z" /></g><g
           transform="translate(416.5597,152.4144)"
           id="g5621"><path
             id="path5623"
             style="fill:#ffffff;fill-opacity:1;fill-rule:nonzero;stroke:none"
             d="m 0,0 12.219,0 0,-30.369 c 0,-3.144 2.572,-6.288 6.503,-6.288 3.572,0 6.502,2.715 6.502,6.288 l 0,30.369 12.004,0 0,-29.512 c 0,-10.718 -8.074,-19.007 -18.506,-19.007 C 8.146,-48.519 0,-40.444 0,-29.512 L 0,0 Z" /></g></g></g></g></svg>